PathFileType	4	(X/Y/Z)	./resultDataOpenSim/trcMotMarkerGrf/sub10/qtm-12-02.trc
DataRate	CameraRate	NumFrames	NumMarkers	Units	OrigDataRate	OrigDataStartFrame	OrigNumFrames
250.000000	250.000000	7	24	m	250.000000	289	461
Frame#	Time	L.Toe.Tip			R.Toe.Tip			L.Ankle.Lat			R.Ankle.Lat			L.Ankle.Med			R.Ankle.Med			L.Heel			R.Heel			L.Knee.Lat			R.Knee.Lat			L.Knee.Med			R.Knee.Med			L.Thigh.Upper			R.Thigh.Upper			L.ASIS			R.ASIS			V.Sacral			L.Acromium			R.Acromium			C7			L.Elbow			R.Elbow			L.Wrist.Lat			R.Wrist.Lat
		X1	Y1	Z1	X2	Y2	Z2	X3	Y3	Z3	X4	Y4	Z4	X5	Y5	Z5	X6	Y6	Z6	X7	Y7	Z7	X8	Y8	Z8	X9	Y9	Z9	X10	Y10	Z10	X11	Y11	Z11	X12	Y12	Z12	X13	Y13	Z13	X14	Y14	Z14	X15	Y15	Z15	X16	Y16	Z16	X17	Y17	Z17	X18	Y18	Z18	X19	Y19	Z19	X20	Y20	Z20	X21	Y21	Z21	X22	Y22	Z22	X23	Y23	Z23	X24	Y24	Z24

289	1.152	0.035404308	0.022188317	-0.099033187	0.85627671	0.038978754	0.067644036	-0.00046440321	0.15098208	-0.14424581	0.71678728	0.056175436	0.12143969	0.035571873	0.15466062	-0.067751343	0.72616982	0.07690162	0.034168058	-0.048581398	0.18813545	-0.092947002	0.66373755	0.029699268	0.083725147	0.27138388	0.42660402	-0.17294897	0.70439198	0.45637173	0.11680876	0.29794988	0.37954681	-0.063696417	0.68053867	0.45370128	-0.0089374404	0.39808116	0.78820179	-0.19605211	0.55548145	0.83330918	0.16672612	0.50191182	0.88544329	-0.16033947	0.58374422	0.91597007	0.067491374	0.35912867	0.92002123	0.025063579	0.48406886	1.3830625	-0.16524929	0.44375331	1.3775815	0.14634164	0.38795736	1.3995388	-0.021969685	0.44837481	1.0409498	-0.27478239	0.25806036	1.0947049	0.17848924	0.69316429	0.99762983	-0.31261634	0.20862942	0.93798029	0.36304412
290	1.156	0.038455274	0.024024149	-0.09973733	0.85651791	0.038836972	0.067812204	0.0073346288	0.1540263	-0.14575816	0.71693702	0.05617425	0.12142525	0.0430428	0.15713093	-0.068953452	0.72648361	0.076938956	0.034229272	-0.039819269	0.19309131	-0.09489351	0.66382318	0.029771719	0.083760827	0.28236133	0.42542275	-0.17398523	0.71216896	0.4573353	0.11598737	0.30952304	0.37729839	-0.065277985	0.68705808	0.45558598	-0.009579531	0.40391817	0.78695841	-0.19522178	0.56266697	0.83476763	0.16711191	0.50994377	0.88481174	-0.1592386	0.59086899	0.91617521	0.068127669	0.36513335	0.92100572	0.023988214	0.49126428	1.3835813	-0.1643686	0.4516157	1.377536	0.14730674	0.39527924	1.3998994	-0.020672175	0.45361623	1.0414114	-0.27297321	0.26737495	1.0938113	0.17906707	0.69787449	0.99603355	-0.31189882	0.21775154	0.93619185	0.36286237
291	1.16	0.04174992	0.025969383	-0.10049744	0.85667804	0.038723413	0.067996861	0.015486605	0.15719083	-0.14721653	0.71697665	0.056126578	0.12144982	0.050746227	0.15974984	-0.070038966	0.72672524	0.076976524	0.034326785	-0.030790732	0.19803423	-0.096781304	0.66385996	0.029812629	0.083834713	0.29360592	0.42417684	-0.17507476	0.71953575	0.45793127	0.1153803	0.32127971	0.37520749	-0.066751338	0.69374887	0.45726512	-0.010133509	0.4105345	0.78578718	-0.19451043	0.56962404	0.83621671	0.16754424	0.51783248	0.88421743	-0.15817864	0.59795993	0.91641109	0.068733779	0.37095444	0.92183116	0.022644618	0.4984438	1.3841148	-0.16355172	0.45945676	1.3775426	0.14823366	0.40255353	1.4003258	-0.019496498	0.45885923	1.0419319	-0.27087925	0.27672635	1.0929556	0.17974312	0.70251032	0.99434888	-0.31116917	0.22700346	0.9343721	0.36272295
292	1.164	0.045354571	0.028021589	-0.10134502	0.85679308	0.038637127	0.068154629	0.023957573	0.16043356	-0.14861042	0.71697144	0.05606261	0.12149489	0.05866188	0.16250262	-0.071023065	0.72690321	0.077020937	0.034441199	-0.021521739	0.20291722	-0.098586308	0.66387368	0.02983852	0.083935121	0.30510066	0.42289925	-0.17621287	0.72638144	0.45819838	0.11500719	0.33321954	0.373348	-0.068114941	0.7005267	0.45867829	-0.01057502	0.41836977	0.78476268	-0.1942681	0.57638394	0.83764808	0.16801884	0.52559748	0.88367085	-0.15715617	0.6050165	0.91668453	0.06932325	0.37692673	0.92243011	0.021343058	0.50560337	1.3846603	-0.16279328	0.46727447	1.3776061	0.14912636	0.40979855	1.4008365	-0.018428839	0.46401949	1.0426352	-0.26903215	0.28611058	1.0921157	0.18051113	0.70706443	0.9925676	-0.31042645	0.23640824	0.9325272	0.36262646
293	1.168	0.049364658	0.03018854	-0.1023498	0.85689695	0.038572351	0.068289021	0.032679357	0.1637175	-0.14994022	0.7169976	0.056004836	0.12155372	0.066760804	0.16536242	-0.071936031	0.72707773	0.077069447	0.034553509	-0.012030673	0.20769684	-0.10028792	0.663891	0.029867941	0.084039723	0.31679301	0.42162383	-0.17736811	0.7326188	0.45820712	0.11483138	0.34533748	0.37177348	-0.069397769	0.7073285	0.45979232	-0.010883488	0.42712487	0.78390399	-0.19449245	0.58296247	0.83904434	0.16851479	0.53326099	0.88318492	-0.15616791	0.61200149	0.91702996	0.069919921	0.38314362	0.9228657	0.020257138	0.51274003	1.385212	-0.16208741	0.47506517	1.3777233	0.14998098	0.41702279	1.4014389	-0.017453711	0.46881693	1.0436188	-0.26776731	0.29552107	1.0912699	0.18134952	0.71151942	0.99068827	-0.30968822	0.24599183	0.93065775	0.36257289
294	1.172	0.053883916	0.032492666	-0.1035929	0.85700805	0.038518667	0.068416772	0.041574555	0.1670282	-0.1512137	0.71707883	0.055966862	0.1216284	0.075023463	0.16829663	-0.072810944	0.72730293	0.077112419	0.034652712	-0.0023415917	0.21234348	-0.10185116	0.66392846	0.029912646	0.084131349	0.32864773	0.42038448	-0.17851147	0.738191	0.4580465	0.11480574	0.35757111	0.37051076	-0.070594829	0.71409456	0.46059238	-0.011035125	0.43625074	0.78318398	-0.19495573	0.58933884	0.8403777	0.16899532	0.5408271	0.88279469	-0.15522691	0.61887547	0.91748869	0.070540558	0.38951783	0.92322517	0.019424009	0.51984999	1.3857717	-0.16143025	0.48283285	1.3778977	0.15078611	0.42422925	1.4021273	-0.016563222	0.47320834	1.0448618	-0.26663859	0.30495335	1.0903984	0.18224289	0.71587043	0.98874268	-0.30897084	0.25576564	0.92877117	0.36255859
295	1.176	0.059014506	0.034985668	-0.10513569	0.85712534	0.038466703	0.068543622	0.050586718	0.17038105	-0.15242234	0.71719874	0.055946669	0.1217167	0.083455818	0.17127289	-0.073670911	0.72758656	0.077139831	0.034735781	0.0074992289	0.21684676	-0.10322018	0.66398522	0.029971835	0.084202071	0.34064084	0.41920934	-0.17961574	0.74308668	0.45778852	0.11491037	0.36978835	0.36955671	-0.071607179	0.72074674	0.46107148	-0.011023032	0.44539143	0.78257779	-0.19546389	0.59545945	0.84161847	0.16942055	0.54826811	0.88256574	-0.15436585	0.62565582	0.91807629	0.071179951	0.39597549	0.92354849	0.018872168	0.52693058	1.3863533	-0.1608181	0.49057508	1.3781408	0.15153447	0.43141349	1.4028904	-0.015749212	0.47745735	1.0462474	-0.26475039	0.3144038	1.0894803	0.18318907	0.72012397	0.98676024	-0.30828237	0.26572586	0.92688489	0.36257504
